<?xml version="1.0" encoding="iso-8859-1"?>
<!-- Generator: Adobe Illustrator 19.0.0, SVG Export Plug-In . SVG Version: 6.00 Build 0)  -->
<svg version="1.1" id="Layer_1" xmlns="http://www.w3.org/2000/svg" xmlns:xlink="http://www.w3.org/1999/xlink" x="0px" y="0px"
	 viewBox="0 0 512 512" style="enable-background:new 0 0 512 512;" xml:space="preserve">
<circle style="fill:#F95428;" cx="289.359" cy="199.136" r="199.136"/>
<g>
	<path style="fill:#E03F20;" d="M135.662,199.129c0-102.294,77.138-186.557,176.416-197.832C304.622,0.45,297.046,0,289.364,0
		C179.388,0,90.234,89.154,90.234,199.129s89.154,199.129,199.129,199.129c7.682,0,15.259-0.451,22.714-1.297
		C212.8,385.687,135.662,301.423,135.662,199.129z"/>
	<circle style="fill:#E03F20;" cx="289.359" cy="199.136" r="69.781"/>
</g>
<circle style="fill:#E6E6E6;" cx="289.359" cy="199.136" r="53.163"/>
<path style="fill:#B3B3B3;" d="M289.364,145.962c3.899,0,7.696,0.432,11.357,1.228c-23.905,5.204-41.811,26.475-41.811,51.94
	s17.906,46.736,41.811,51.94c-3.661,0.796-7.458,1.228-11.357,1.228c-29.364,0-53.168-23.804-53.168-53.168
	S260,145.962,289.364,145.962z"/>
<path style="fill:#4D4D4D;" d="M279.9,398.259v28.3c-117.23-4.82-211.87-98.73-217.856-215.661h5.98
	c5.227,0,9.464-4.237,9.464-9.464c0-5.227-4.237-9.464-9.464-9.464H32.97c-5.227,0-9.464,4.237-9.464,9.464
	c0,5.227,4.237,9.464,9.464,9.464h10.129c6.164,130.505,114.261,234.784,246.265,234.784c5.227,0,9.464-4.237,9.464-9.464v-37.958
	H279.9z"/>
<path style="fill:#F7B239;" d="M406.298,423.598H172.43c-11.174,0-20.233,9.059-20.233,20.233v47.935
	c0,11.174,9.059,20.233,20.233,20.233h233.866c11.174,0,20.233-9.059,20.233-20.233v-47.935
	C426.53,432.657,417.471,423.598,406.298,423.598z"/>
<path style="fill:#E09B2D;" d="M183.744,491.767v-47.935c0-11.175,9.059-20.233,20.233-20.233H172.43
	c-11.175,0-20.233,9.059-20.233,20.233v47.935c0,11.174,9.059,20.233,20.233,20.233h31.547
	C192.803,512,183.744,502.941,183.744,491.767z"/>
<g>
</g>
<g>
</g>
<g>
</g>
<g>
</g>
<g>
</g>
<g>
</g>
<g>
</g>
<g>
</g>
<g>
</g>
<g>
</g>
<g>
</g>
<g>
</g>
<g>
</g>
<g>
</g>
<g>
</g>
</svg>
