<?xml version="1.0" encoding="iso-8859-1"?>
<!-- Generator: Adobe Illustrator 19.0.0, SVG Export Plug-In . SVG Version: 6.00 Build 0)  -->
<svg version="1.1" id="Capa_1" xmlns="http://www.w3.org/2000/svg" xmlns:xlink="http://www.w3.org/1999/xlink" x="0px" y="0px"
	 viewBox="0 0 512 512" style="enable-background:new 0 0 512 512;" xml:space="preserve">
<path style="fill:#5C6D7D;" d="M464.378,134.87l-16.486-61.99c-0.666-2.504-2.933-4.247-5.524-4.247H327.866
	C327.738,30.707,296.96,0,259.004,0h-6.009c-37.956,0-68.734,30.707-68.862,68.632H69.631c-2.591,0-4.859,1.743-5.524,4.247
	L47.62,134.87c-0.965,3.628,1.77,7.186,5.524,7.186h16.451l29.46,343.5c1.283,14.957,13.798,26.444,28.81,26.444h258.008
	c15.012,0,27.527-11.488,28.81-26.444l29.46-343.5h14.71C462.608,142.056,465.343,138.498,464.378,134.87z M222.598,66.661
	c0-18.447,14.954-33.401,33.401-33.401l0,0c18.447,0,33.401,14.954,33.401,33.401v1.972h-33.027h-0.748h-33.027L222.598,66.661
	L222.598,66.661z"/>
<path style="fill:#53616D;" d="M464.379,134.871l-16.487-61.995c-0.666-2.496-2.933-4.244-5.523-4.244H390.88l19.587,73.426
	L380.52,485.556c-1.279,14.958-13.793,26.441-28.803,26.441h34.159c15.01,0,27.523-11.484,28.803-26.441l29.468-343.498h14.709
	C462.61,142.059,465.346,138.501,464.379,134.871z"/>
<g>
	<path style="fill:#E6EAEE;" d="M167.41,474.49c-3.853,0-7.129-2.951-7.464-6.859l-24.008-279.924
		c-0.354-4.127,2.705-7.76,6.832-8.114c4.147-0.348,7.76,2.706,8.114,6.832l24.008,279.924c0.354,4.127-2.705,7.76-6.832,8.114
		C167.841,474.481,167.624,474.49,167.41,474.49z"/>
	<path style="fill:#E6EAEE;" d="M344.589,474.49c-0.215,0-0.431-0.009-0.649-0.028c-4.127-0.354-7.186-3.986-6.832-8.114
		l24.008-279.924c0.354-4.127,3.985-7.178,8.114-6.832c4.127,0.354,7.186,3.986,6.832,8.114L352.054,467.63
		C351.718,471.54,348.441,474.49,344.589,474.49z"/>
	<path style="fill:#E6EAEE;" d="M256,474.49c-4.142,0-7.5-3.358-7.5-7.5V187.066c0-4.142,3.358-7.5,7.5-7.5
		c4.142,0,7.5,3.358,7.5,7.5V466.99C263.5,471.132,260.142,474.49,256,474.49z"/>
</g>
<g>
</g>
<g>
</g>
<g>
</g>
<g>
</g>
<g>
</g>
<g>
</g>
<g>
</g>
<g>
</g>
<g>
</g>
<g>
</g>
<g>
</g>
<g>
</g>
<g>
</g>
<g>
</g>
<g>
</g>
</svg>
