<?xml version="1.0"?>
<svg xmlns="http://www.w3.org/2000/svg" xmlns:xlink="http://www.w3.org/1999/xlink" version="1.1" id="Capa_1" x="0px" y="0px" viewBox="0 0 512 512" style="enable-background:new 0 0 512 512;" xml:space="preserve" width="512px" height="512px" class=""><g><path style="fill:#8A4D63" d="M408,16c-26.112,0-52.032,9.28-72,25.376C316.032,25.28,290.112,16,264,16  c-58.304,0-104,43.168-104,98.272c0,77.824,139.488,169.664,167.456,187.264C330.048,303.2,333.024,304,336,304  c2.912,0,5.824-0.768,8.416-2.368C361.568,291.04,512,195.872,512,114.272C512,59.168,466.304,16,408,16z" data-original="#D32F2F" class="active-path" data-old_color="#D32F2F"/><path style="fill:#B66482" d="M305.984,144c-32.864,0-65.44,12.064-89.984,32.896C191.456,156.064,158.88,144,125.984,144  C55.328,144,0,196.192,0,262.848c0,97.184,186.24,217.312,207.456,230.656C210.08,495.2,213.024,496,216,496  c2.912,0,5.824-0.768,8.416-2.368C301.504,446.08,432,343.904,432,262.88C432,196.192,376.672,144,305.984,144z" data-original="#F44336" class="" data-old_color="#F44336"/></g> </svg>
